<?xml version="1.0" encoding="utf-8"?>
<!-- Svg Vector Icons : http://www.onlinewebfonts.com/icon -->
<!DOCTYPE svg PUBLIC "-//W3C//DTD SVG 1.1//EN" "http://www.w3.org/Graphics/SVG/1.1/DTD/svg11.dtd">
<svg version="1.1" xmlns="http://www.w3.org/2000/svg" xmlns:xlink="http://www.w3.org/1999/xlink" x="0px" y="0px" viewBox="0 0 1000 1000" enable-background="new 0 0 1000 1000" xml:space="preserve">
<metadata> Svg Vector Icons : http://www.onlinewebfonts.com/icon </metadata>
<g><path style="fill:#ffffff" d="M10,361.6v276.8c0,30.5,24.9,55.4,55.4,55.4h138.4V306.2H65.4C34.9,306.2,10,331.1,10,361.6L10,361.6z M480.6,140.1L259.2,270.2v462.3l221.5,130.1c30.5,0,55.4-24.9,55.4-55.4v-609C536,165,511.1,140.1,480.6,140.1L480.6,140.1z"/><path style="fill:#ffffff" d="M702.1,906.9c-16.6,0-33.2-11.1-38.8-27.7c-8.3-22.1,2.8-44.3,24.9-52.6C823.9,774.1,909.7,646.7,909.7,500c0-146.7-85.8-274.1-221.5-326.7c-22.1-8.3-33.2-33.2-24.9-52.6c8.3-22.1,33.2-33.2,52.6-24.9C882,159.5,990,320,990,500c0,179.9-108,337.7-274.1,404.2C713.2,906.9,707.6,906.9,702.1,906.9L702.1,906.9z M646.7,727c-16.6,0-33.2-11.1-38.8-30.5c-5.5-22.1,5.5-44.3,27.7-52.6c63.7-19.4,108-77.5,108-144c0-66.4-44.3-127.3-108-144c-22.1-5.5-33.2-30.5-27.7-52.6c5.5-22.1,30.5-33.2,52.6-27.7c96.9,27.7,166.1,121.8,166.1,224.2c0,105.2-66.4,193.8-166.1,224.2C655,724.2,652.3,727,646.7,727L646.7,727z"/></g>
</svg>